<svg xmlns="http://www.w3.org/2000/svg" viewBox="0 0 217.93 218.6"><defs><style>.cls-1{opacity:0.1;}.cls-2{fill:#75818f;}</style></defs><g id="Layer_2" data-name="Layer 2"><g id="Ñëîé_1" data-name="Ñëîé 1"><g class="cls-1"><path class="cls-2" d="M.66,54.52C1.2,44.12,3.91,43,9.31,40.8a41,41,0,0,0,12-7,13.64,13.64,0,0,0,5-7.49,13.64,13.64,0,0,0,7.49-5,41,41,0,0,0,7-12C43,3.91,44.12,1.2,54.52.66A.66.66,0,0,0,55.15,0H48.86c-6.23,1.32-7.47,4.36-9.29,8.8a39.6,39.6,0,0,1-6.8,11.68,12.86,12.86,0,0,1-6.26,4.39A11,11,0,0,0,26,20.69C23.7,13.49,14.67,7.84,8,7.29A.66.66,0,0,0,7.29,8c.55,6.66,6.2,15.69,13.4,18a11,11,0,0,0,4.18.52,12.86,12.86,0,0,1-4.39,6.26A39.6,39.6,0,0,1,8.8,39.57C4.36,41.39,1.32,42.63,0,48.86v6.29A.66.66,0,0,0,.66,54.52ZM21.1,24.73c-6.43-2.05-11.52-9.88-12.39-16,6.14.87,14,6,16,12.39a9.54,9.54,0,0,1,.41,4A9.54,9.54,0,0,1,21.1,24.73Z"/><path class="cls-2" d="M54.45.66C64.85,1.2,66,3.91,68.17,9.31a40.79,40.79,0,0,0,7,12,13.65,13.65,0,0,0,7.48,5,13.72,13.72,0,0,0,5,7.49,41,41,0,0,0,12,7c5.4,2.21,8.11,3.32,8.64,13.72a.67.67,0,0,0,1.33,0c.54-10.4,3.25-11.51,8.64-13.72a40.89,40.89,0,0,0,12-7,13.61,13.61,0,0,0,5-7.49,13.62,13.62,0,0,0,7.48-5,40.79,40.79,0,0,0,7-12C152,3.91,153.08,1.2,163.48.66a.65.65,0,0,0,.63-.66h-6.28c-6.23,1.32-7.48,4.36-9.3,8.8a39.75,39.75,0,0,1-6.79,11.68,12.86,12.86,0,0,1-6.26,4.39,11.21,11.21,0,0,0-.52-4.18c-2.29-7.2-11.32-12.85-18-13.4a.64.64,0,0,0-.52.19.65.65,0,0,0-.19.53c.55,6.66,6.19,15.69,13.4,18a11,11,0,0,0,4.17.52,12.84,12.84,0,0,1-4.38,6.26,39.72,39.72,0,0,1-11.68,6.8c-4.45,1.82-7.48,3.06-8.8,9.29-1.33-6.23-4.36-7.47-8.8-9.29a39.48,39.48,0,0,1-11.68-6.8,12.86,12.86,0,0,1-4.39-6.26A11,11,0,0,0,88.27,26c7.21-2.29,12.85-11.32,13.41-18a.72.72,0,0,0-.19-.53.65.65,0,0,0-.53-.19c-6.67.55-15.69,6.2-18,13.4a11,11,0,0,0-.51,4.18,12.86,12.86,0,0,1-6.26-4.39A39.6,39.6,0,0,1,69.4,8.8C67.58,4.36,66.34,1.32,60.11,0H53.82A.66.66,0,0,0,54.45.66Zm75.61,24.07c-6.42-2.05-11.51-9.88-12.39-16,6.15.87,14,6,16,12.39a9.54,9.54,0,0,1,.42,4A9.6,9.6,0,0,1,130.06,24.73ZM84.24,21.1c2-6.43,9.87-11.52,16-12.39-.88,6.14-6,14-12.39,16a9.55,9.55,0,0,1-4,.41A9.38,9.38,0,0,1,84.24,21.1Z"/><path class="cls-2" d="M209.13,39.57a39.72,39.72,0,0,1-11.68-6.8,12.91,12.91,0,0,1-4.38-6.26,11,11,0,0,0,4.17-.52c7.21-2.29,12.85-11.32,13.4-18a.65.65,0,0,0-.19-.53.64.64,0,0,0-.52-.19c-6.67.55-15.7,6.2-18,13.4a11.21,11.21,0,0,0-.52,4.18,12.91,12.91,0,0,1-6.26-4.39A39.75,39.75,0,0,1,178.37,8.8c-1.82-4.44-3.07-7.48-9.29-8.8h-6.29a.65.65,0,0,0,.63.66c10.4.54,11.51,3.25,13.72,8.65a40.79,40.79,0,0,0,7,12,13.65,13.65,0,0,0,7.48,5,13.66,13.66,0,0,0,5,7.49,40.89,40.89,0,0,0,12,7c5.39,2.21,8.1,3.32,8.64,13.72a.67.67,0,0,0,.66.63V48.86C216.61,42.63,213.58,41.39,209.13,39.57ZM193.21,21.1c2-6.43,9.87-11.52,16-12.39-.88,6.14-6,14-12.39,16a9.58,9.58,0,0,1-4.05.41A9.54,9.54,0,0,1,193.21,21.1Z"/></g><g class="cls-1"><path class="cls-2" d="M.66,54.48A.66.66,0,0,0,0,53.82H0v1.33H0A.66.66,0,0,0,.66,54.48Z"/><path class="cls-2" d="M13.69,63.79a40.79,40.79,0,0,0,7,12,13.7,13.7,0,0,0,7.48,5,13.68,13.68,0,0,0,5,7.48,40.66,40.66,0,0,0,12,7c5.39,2.21,8.1,3.32,8.64,13.72a.67.67,0,0,0,1.33,0c.53-10.4,3.24-11.51,8.64-13.72a40.79,40.79,0,0,0,12-7,13.73,13.73,0,0,0,5-7.48,13.73,13.73,0,0,0,7.48-5,40.79,40.79,0,0,0,7-12c2.21-5.4,3.32-8.1,13.72-8.64a.67.67,0,0,0,0-1.33c-10.4-.54-11.51-3.25-13.72-8.64a40.66,40.66,0,0,0-7-12,13.62,13.62,0,0,0-7.48-5,13.7,13.7,0,0,0-5-7.48,40.79,40.79,0,0,0-12-7C58.4,11.48,55.69,10.37,55.15,0H53.82c-.54,10.37-3.25,11.48-8.64,13.69a40.66,40.66,0,0,0-12,7,13.59,13.59,0,0,0-5,7.48,13.64,13.64,0,0,0-7.48,5,40.66,40.66,0,0,0-7,12c-2.21,5.39-3.32,8.1-13.69,8.64v1.33C10.37,55.69,11.48,58.4,13.69,63.79ZM29.76,75.58c2-6.42,9.87-11.51,16-12.39-.88,6.15-6,14-12.39,16a9.42,9.42,0,0,1-4.05.41A9.56,9.56,0,0,1,29.76,75.58Zm49.86,4a9.39,9.39,0,0,1-4-.41c-6.42-2-11.51-9.87-12.39-16,6.15.88,14,6,16,12.39A9.39,9.39,0,0,1,79.62,79.62Zm-.41-46.23c-2,6.42-9.87,11.51-16,12.39.88-6.15,6-14,12.39-16a9.7,9.7,0,0,1,3-.48,9.46,9.46,0,0,1,1.07.06A9.42,9.42,0,0,1,79.21,33.39ZM29.34,29.34a9.59,9.59,0,0,1,4.05.42c6.42,2,11.51,9.87,12.39,16-6.15-.88-14-6-16-12.39A9.59,9.59,0,0,1,29.34,29.34ZM14.92,45.68A39.88,39.88,0,0,1,21.71,34,12.91,12.91,0,0,1,28,29.62a11.19,11.19,0,0,0,.52,4.17c2.29,7.21,11.32,12.85,18,13.4a.66.66,0,0,0,.71-.71c-.55-6.67-6.19-15.7-13.4-18A11.19,11.19,0,0,0,29.62,28,13,13,0,0,1,34,21.71a39.88,39.88,0,0,1,11.68-6.79c4.45-1.82,7.48-3.07,8.8-9.29,1.33,6.22,4.36,7.47,8.8,9.29A39.78,39.78,0,0,1,75,21.71,13,13,0,0,1,79.35,28a11.19,11.19,0,0,0-4.17.52c-7.21,2.29-12.85,11.32-13.41,18A.68.68,0,0,0,62,47a.63.63,0,0,0,.52.19c6.67-.55,15.69-6.19,18-13.4A11,11,0,0,0,81,29.62,12.91,12.91,0,0,1,87.25,34a39.72,39.72,0,0,1,6.8,11.68c1.82,4.45,3.06,7.48,9.29,8.8-6.23,1.33-7.47,4.36-9.29,8.8A39.63,39.63,0,0,1,87.25,75,12.91,12.91,0,0,1,81,79.35a11,11,0,0,0-.51-4.17c-2.3-7.21-11.32-12.85-18-13.41a.69.69,0,0,0-.72.72c.56,6.67,6.2,15.69,13.41,18a11,11,0,0,0,4.17.51A12.91,12.91,0,0,1,75,87.25a39.63,39.63,0,0,1-11.69,6.8c-4.44,1.82-7.47,3.06-8.8,9.29-1.32-6.23-4.35-7.47-8.8-9.29A39.72,39.72,0,0,1,34,87.25,12.91,12.91,0,0,1,29.62,81a11,11,0,0,0,4.17-.51c7.21-2.3,12.85-11.32,13.4-18A.63.63,0,0,0,47,62a.68.68,0,0,0-.52-.2c-6.67.56-15.7,6.2-18,13.41A11.19,11.19,0,0,0,28,79.35,13,13,0,0,1,21.71,75a39.78,39.78,0,0,1-6.79-11.69c-1.82-4.44-3.07-7.47-9.3-8.8C11.85,53.16,13.1,50.13,14.92,45.68Z"/><path class="cls-2" d="M204.25,45.18a40.89,40.89,0,0,0-7-12,13.61,13.61,0,0,0-7.49-5,13.62,13.62,0,0,0-5-7.48,40.79,40.79,0,0,0-12-7c-5.39-2.21-8.1-3.32-8.64-13.69h-1.34c-.54,10.37-3.25,11.48-8.63,13.69a40.81,40.81,0,0,0-12,7,13.62,13.62,0,0,0-5,7.48,13.66,13.66,0,0,0-7.49,5,40.89,40.89,0,0,0-7,12c-2.21,5.39-3.31,8.1-13.72,8.64a.67.67,0,0,0,0,1.33c10.41.54,11.51,3.24,13.72,8.64a41,41,0,0,0,7,12,13.72,13.72,0,0,0,7.49,5,13.65,13.65,0,0,0,5,7.48,40.81,40.81,0,0,0,12,7c5.39,2.21,8.1,3.32,8.64,13.72a.67.67,0,0,0,.66.63.66.66,0,0,0,.66-.63c.54-10.4,3.25-11.51,8.65-13.72a40.79,40.79,0,0,0,12-7,13.65,13.65,0,0,0,5-7.48,13.72,13.72,0,0,0,7.49-5,41,41,0,0,0,7-12c2.21-5.39,3.31-8.1,13.68-8.64V53.82C207.56,53.28,206.46,50.57,204.25,45.18ZM188.18,33.39c-2.05,6.42-9.88,11.51-16,12.39.88-6.15,6-14,12.39-16a9.7,9.7,0,0,1,3-.48,9.46,9.46,0,0,1,1.07.06A9.58,9.58,0,0,1,188.18,33.39Zm-49.87-4.05a9.61,9.61,0,0,1,4.05.42c6.42,2,11.51,9.87,12.38,16-6.14-.88-14-6-16-12.39A9.58,9.58,0,0,1,138.31,29.34Zm.41,46.24c2.05-6.42,9.88-11.51,16-12.39-.87,6.15-6,14-12.38,16a9.44,9.44,0,0,1-4.05.41A9.55,9.55,0,0,1,138.72,75.58Zm49.87,4a9.38,9.38,0,0,1-4-.41c-6.42-2-11.51-9.87-12.39-16,6.14.88,14,6,16,12.39A9.55,9.55,0,0,1,188.59,79.62ZM203,63.28A39.63,39.63,0,0,1,196.22,75,12.91,12.91,0,0,1,190,79.35a10.79,10.79,0,0,0-.52-4.17c-2.29-7.21-11.32-12.85-18-13.41a.69.69,0,0,0-.53.2.63.63,0,0,0-.19.52c.56,6.67,6.2,15.69,13.4,18a11.07,11.07,0,0,0,4.18.51,12.86,12.86,0,0,1-4.39,6.26,39.6,39.6,0,0,1-11.68,6.8c-4.44,1.82-7.47,3.06-8.8,9.29-1.32-6.23-4.36-7.47-8.8-9.29A39.6,39.6,0,0,1,143,87.25,12.86,12.86,0,0,1,138.58,81a11,11,0,0,0,4.18-.51c7.2-2.3,12.85-11.32,13.4-18A.63.63,0,0,0,156,62a.69.69,0,0,0-.53-.2c-6.66.56-15.69,6.2-18,13.41a11,11,0,0,0-.52,4.17A12.91,12.91,0,0,1,130.68,75a39.63,39.63,0,0,1-6.8-11.69c-1.82-4.44-3.06-7.47-9.29-8.8,6.23-1.32,7.47-4.35,9.29-8.8A39.72,39.72,0,0,1,130.68,34a12.91,12.91,0,0,1,6.26-4.38,11,11,0,0,0,.52,4.17c2.29,7.21,11.32,12.85,18,13.4A.65.65,0,0,0,156,47a.64.64,0,0,0,.19-.52c-.55-6.67-6.2-15.7-13.4-18a11.21,11.21,0,0,0-4.18-.52A12.91,12.91,0,0,1,143,21.71a39.75,39.75,0,0,1,11.68-6.79c4.44-1.82,7.48-3.07,8.8-9.3,1.33,6.23,4.36,7.48,8.8,9.3a39.75,39.75,0,0,1,11.68,6.79A12.91,12.91,0,0,1,188.32,28a11.27,11.27,0,0,0-4.18.52c-7.2,2.29-12.84,11.32-13.4,18a.64.64,0,0,0,.19.52.65.65,0,0,0,.53.19c6.66-.55,15.69-6.19,18-13.4a10.79,10.79,0,0,0,.52-4.17A12.91,12.91,0,0,1,196.22,34,39.72,39.72,0,0,1,203,45.68c1.82,4.45,3.06,7.48,9.29,8.8C206.08,55.81,204.84,58.84,203,63.28Z"/><path class="cls-2" d="M217.9,53.82a.67.67,0,0,0,0,1.33h0V53.82Z"/></g><g class="cls-1"><path class="cls-2" d="M.66,163.48c.54-10.4,3.25-11.51,8.65-13.72a40.94,40.94,0,0,0,12-7,13.67,13.67,0,0,0,5-7.49,13.61,13.61,0,0,0,7.49-5,40.89,40.89,0,0,0,7-12c2.21-5.39,3.32-8.1,13.72-8.64a.67.67,0,0,0,0-1.33c-10.4-.53-11.51-3.24-13.72-8.64a41,41,0,0,0-7-12,13.72,13.72,0,0,0-7.49-5,13.65,13.65,0,0,0-5-7.48,40.79,40.79,0,0,0-12-7C3.91,66,1.2,64.85.66,54.45A.66.66,0,0,0,0,53.82v6.29c1.32,6.23,4.36,7.47,8.8,9.29a39.6,39.6,0,0,1,11.68,6.8,12.86,12.86,0,0,1,4.39,6.26,11,11,0,0,0-4.18.51c-7.2,2.3-12.85,11.32-13.4,18a.65.65,0,0,0,.19.53.68.68,0,0,0,.53.19c6.66-.56,15.69-6.2,18-13.4a11.06,11.06,0,0,0,.52-4.18,12.91,12.91,0,0,1,6.26,4.38,39.63,39.63,0,0,1,6.8,11.69c1.82,4.44,3.06,7.47,9.29,8.8-6.23,1.32-7.47,4.35-9.29,8.8a39.72,39.72,0,0,1-6.8,11.68,12.84,12.84,0,0,1-6.26,4.38,11,11,0,0,0-.52-4.17c-2.29-7.21-11.32-12.85-18-13.4a.62.62,0,0,0-.53.19.64.64,0,0,0-.19.52c.55,6.67,6.2,15.7,13.4,18a11.21,11.21,0,0,0,4.18.52,12.86,12.86,0,0,1-4.39,6.26A39.75,39.75,0,0,1,8.8,148.53c-4.44,1.82-7.48,3.07-8.8,9.3v6.28A.65.65,0,0,0,.66,163.48ZM24.73,87.87c-2.05,6.42-9.88,11.51-16,12.39.87-6.15,6-14,12.39-16a9.7,9.7,0,0,1,3-.48,7.69,7.69,0,0,1,1.07.07A9.55,9.55,0,0,1,24.73,87.87ZM21.1,133.69c-6.43-2-11.52-9.87-12.39-16,6.14.88,14,6,16,12.39a9.58,9.58,0,0,1,.41,4.05A9.39,9.39,0,0,1,21.1,133.69Z"/><path class="cls-2" d="M109,164.11a.66.66,0,0,1-.67-.63c-.53-10.4-3.24-11.51-8.64-13.72a40.94,40.94,0,0,1-12-7,13.75,13.75,0,0,1-5-7.49,13.62,13.62,0,0,1-7.48-5,40.66,40.66,0,0,1-7-12c-2.21-5.39-3.32-8.1-13.72-8.64a.67.67,0,0,1,0-1.33c10.4-.53,11.51-3.24,13.72-8.64a40.79,40.79,0,0,1,7-12,13.73,13.73,0,0,1,7.48-5,13.73,13.73,0,0,1,5-7.48,40.79,40.79,0,0,1,12-7c5.4-2.21,8.11-3.32,8.64-13.72a.67.67,0,0,1,1.33,0c.54,10.4,3.25,11.51,8.64,13.72a40.66,40.66,0,0,1,12,7,13.62,13.62,0,0,1,5,7.48,13.7,13.7,0,0,1,7.48,5,40.79,40.79,0,0,1,7,12c2.21,5.4,3.32,8.11,13.72,8.64a.67.67,0,0,1,0,1.33c-10.4.54-11.51,3.25-13.72,8.64a40.66,40.66,0,0,1-7,12,13.59,13.59,0,0,1-7.48,5,13.64,13.64,0,0,1-5,7.49,40.81,40.81,0,0,1-12,7c-5.39,2.21-8.1,3.32-8.64,13.72A.66.66,0,0,1,109,164.11ZM84.1,135.48a12.86,12.86,0,0,0,4.39,6.26,39.63,39.63,0,0,0,11.68,6.79c4.44,1.82,7.47,3.07,8.8,9.3,1.32-6.23,4.35-7.48,8.8-9.3a39.88,39.88,0,0,0,11.68-6.79,12.84,12.84,0,0,0,4.38-6.26,11.19,11.19,0,0,1-4.17-.52c-7.21-2.29-12.85-11.32-13.4-18a.66.66,0,0,1,.71-.71c6.67.55,15.7,6.19,18,13.4a11.19,11.19,0,0,1,.52,4.17,12.84,12.84,0,0,0,6.26-4.38,39.88,39.88,0,0,0,6.79-11.68c1.82-4.45,3.07-7.48,9.3-8.8-6.23-1.33-7.48-4.36-9.3-8.8a39.78,39.78,0,0,0-6.79-11.69,12.91,12.91,0,0,0-6.26-4.38,11.27,11.27,0,0,1-.52,4.18c-2.29,7.2-11.32,12.84-18,13.4a.68.68,0,0,1-.52-.19.65.65,0,0,1-.19-.53c.55-6.67,6.19-15.69,13.4-18a11,11,0,0,1,4.17-.51,12.84,12.84,0,0,0-4.38-6.26,39.72,39.72,0,0,0-11.68-6.8c-4.45-1.82-7.48-3.06-8.8-9.29-1.33,6.23-4.36,7.47-8.8,9.29a39.48,39.48,0,0,0-11.68,6.8,12.86,12.86,0,0,0-4.39,6.26,11,11,0,0,1,4.17.51c7.21,2.3,12.85,11.32,13.41,18a.72.72,0,0,1-.19.53.68.68,0,0,1-.53.19c-6.67-.56-15.69-6.2-18-13.4a11.07,11.07,0,0,1-.51-4.18,12.91,12.91,0,0,0-6.26,4.38,39.63,39.63,0,0,0-6.8,11.69c-1.82,4.44-3.06,7.47-9.29,8.8,6.23,1.32,7.47,4.35,9.29,8.8a39.72,39.72,0,0,0,6.8,11.68,12.84,12.84,0,0,0,6.26,4.38,11,11,0,0,1,.51-4.17c2.3-7.21,11.32-12.85,18-13.4a.65.65,0,0,1,.53.19.72.72,0,0,1,.19.52c-.56,6.67-6.2,15.7-13.41,18A11.19,11.19,0,0,1,84.1,135.48Zm33.57-17.81c.88,6.15,6,14,12.39,16a9.45,9.45,0,0,0,4.05.42,9.59,9.59,0,0,0-.42-4.05C131.65,123.64,123.82,118.55,117.67,117.67ZM83.83,134.11a9.56,9.56,0,0,0,4-.42c6.42-2,11.51-9.87,12.39-16-6.15.88-14,6-16,12.39A9.42,9.42,0,0,0,83.83,134.11ZM133,83.76a9.77,9.77,0,0,0-3,.48c-6.42,2-11.51,9.87-12.39,16,6.15-.88,14-6,16-12.39a9.4,9.4,0,0,0,.42-4A7.69,7.69,0,0,0,133,83.76Zm-49.21.07a9.39,9.39,0,0,0,.41,4c2,6.42,9.87,11.51,16,12.39-.88-6.15-6-14-12.39-16A9.39,9.39,0,0,0,83.83,83.83Z"/><path class="cls-2" d="M209.13,148.53a39.88,39.88,0,0,1-11.68-6.79,12.91,12.91,0,0,1-4.38-6.26,11.19,11.19,0,0,0,4.17-.52c7.21-2.29,12.85-11.32,13.4-18a.66.66,0,0,0-.71-.71c-6.67.55-15.7,6.19-18,13.4a11.19,11.19,0,0,0-.52,4.17,12.88,12.88,0,0,1-6.26-4.38,39.88,39.88,0,0,1-6.79-11.68c-1.82-4.45-3.07-7.48-9.29-8.8,6.22-1.33,7.47-4.36,9.29-8.8a39.78,39.78,0,0,1,6.79-11.69,13,13,0,0,1,6.26-4.38,11.27,11.27,0,0,0,.52,4.18c2.29,7.2,11.32,12.84,18,13.4a.68.68,0,0,0,.52-.19.65.65,0,0,0,.19-.53c-.55-6.67-6.19-15.69-13.4-18a11,11,0,0,0-4.17-.51,12.91,12.91,0,0,1,4.38-6.26,39.72,39.72,0,0,1,11.68-6.8c4.45-1.82,7.48-3.06,8.8-9.29V53.82a.67.67,0,0,0-.66.63c-.54,10.4-3.25,11.51-8.64,13.72a40.66,40.66,0,0,0-12,7,13.68,13.68,0,0,0-5,7.48,13.73,13.73,0,0,0-7.48,5,40.79,40.79,0,0,0-7,12c-2.21,5.4-3.32,8.11-13.72,8.64a.67.67,0,0,0,0,1.33c10.4.54,11.51,3.25,13.72,8.64a40.66,40.66,0,0,0,7,12,13.62,13.62,0,0,0,7.48,5,13.7,13.7,0,0,0,5,7.49,40.81,40.81,0,0,0,12,7c5.39,2.21,8.1,3.32,8.64,13.72a.66.66,0,0,0,.66.63v-6.28C216.61,151.6,213.58,150.35,209.13,148.53Zm-16.34-64.7a9.42,9.42,0,0,1,4.05.41c6.42,2,11.51,9.87,12.39,16-6.15-.88-14-6-16-12.39A9.56,9.56,0,0,1,192.79,83.83Zm.42,46.23c2-6.42,9.87-11.51,16-12.39-.88,6.15-6,14-12.39,16a9.59,9.59,0,0,1-4.05.42A9.59,9.59,0,0,1,193.21,130.06Z"/></g><g class="cls-1"><path class="cls-2" d="M.66,163.45a.66.66,0,0,0-.63-.66H0v1.34H0A.65.65,0,0,0,.66,163.45Z"/><path class="cls-2" d="M63.79,204.25a41,41,0,0,0,12-7,13.72,13.72,0,0,0,5-7.49,13.65,13.65,0,0,0,7.48-5,40.79,40.79,0,0,0,7-12c2.21-5.4,3.32-8.11,13.72-8.65a.66.66,0,0,0,.63-.66.67.67,0,0,0-.63-.66c-10.4-.54-11.51-3.25-13.72-8.64a40.81,40.81,0,0,0-7-12,13.65,13.65,0,0,0-7.48-5,13.72,13.72,0,0,0-5-7.49,41,41,0,0,0-12-7c-5.4-2.21-8.11-3.31-8.64-13.72a.67.67,0,0,0-1.33,0c-.54,10.41-3.25,11.51-8.64,13.72a40.89,40.89,0,0,0-12,7,13.61,13.61,0,0,0-5,7.49,13.62,13.62,0,0,0-7.48,5,40.81,40.81,0,0,0-7,12c-2.21,5.38-3.32,8.09-13.69,8.63v1.34c10.37.54,11.48,3.25,13.69,8.64a40.79,40.79,0,0,0,7,12,13.62,13.62,0,0,0,7.48,5,13.66,13.66,0,0,0,5,7.49,40.89,40.89,0,0,0,12,7c5.39,2.21,8.1,3.31,8.64,13.68h1.33C55.69,207.56,58.4,206.46,63.79,204.25Zm15.83-15.66a9.55,9.55,0,0,1-4-.41c-6.42-2.05-11.51-9.88-12.39-16,6.15.88,14,6,16,12.39A9.39,9.39,0,0,1,79.62,188.59Zm-.41-46.23c-2,6.42-9.87,11.51-16,12.38.88-6.14,6-14,12.39-16a9.69,9.69,0,0,1,3-.47,9.46,9.46,0,0,1,1.07.06A9.44,9.44,0,0,1,79.21,142.36Zm-49.87-4.05a9.58,9.58,0,0,1,4.05.41c6.42,2.05,11.51,9.88,12.39,16-6.15-.87-14-6-16-12.38A9.61,9.61,0,0,1,29.34,138.31Zm.42,46.24c2-6.43,9.87-11.51,16-12.39-.88,6.14-6,14-12.39,16a9.6,9.6,0,0,1-4.05.41A9.56,9.56,0,0,1,29.76,184.55Zm24.72,27.76c-1.32-6.23-4.35-7.47-8.8-9.29A39.72,39.72,0,0,1,34,196.22,12.91,12.91,0,0,1,29.62,190a10.79,10.79,0,0,0,4.17-.52c7.21-2.29,12.85-11.32,13.4-18a.65.65,0,0,0-.19-.53.64.64,0,0,0-.52-.19c-6.67.56-15.7,6.2-18,13.4a11.21,11.21,0,0,0-.52,4.18,12.91,12.91,0,0,1-6.26-4.39,39.75,39.75,0,0,1-6.79-11.68c-1.82-4.44-3.07-7.47-9.3-8.8,6.23-1.32,7.48-4.36,9.3-8.8A39.75,39.75,0,0,1,21.71,143,12.86,12.86,0,0,1,28,138.58a11.21,11.21,0,0,0,.52,4.18c2.29,7.2,11.32,12.85,18,13.4A.64.64,0,0,0,47,156a.65.65,0,0,0,.19-.53c-.55-6.66-6.19-15.69-13.4-18a11,11,0,0,0-4.17-.52A12.91,12.91,0,0,1,34,130.68a39.72,39.72,0,0,1,11.68-6.8c4.45-1.82,7.48-3.06,8.8-9.29,1.33,6.23,4.36,7.47,8.8,9.29A39.63,39.63,0,0,1,75,130.68a12.91,12.91,0,0,1,4.38,6.26,11,11,0,0,0-4.17.52c-7.21,2.29-12.85,11.32-13.41,18a.69.69,0,0,0,.2.53.63.63,0,0,0,.52.19c6.67-.55,15.69-6.2,18-13.4a11,11,0,0,0,.51-4.18A12.86,12.86,0,0,1,87.25,143a39.6,39.6,0,0,1,6.8,11.68c1.82,4.44,3.06,7.48,9.29,8.8-6.23,1.33-7.47,4.36-9.29,8.8a39.6,39.6,0,0,1-6.8,11.68A12.86,12.86,0,0,1,81,188.32a11,11,0,0,0-.51-4.18c-2.3-7.2-11.32-12.84-18-13.4a.63.63,0,0,0-.52.19.69.69,0,0,0-.2.53c.56,6.66,6.2,15.69,13.41,18a10.79,10.79,0,0,0,4.17.52A12.91,12.91,0,0,1,75,196.22,39.63,39.63,0,0,1,63.28,203C58.84,204.84,55.81,206.08,54.48,212.31Z"/><path class="cls-2" d="M204.25,154.15a41,41,0,0,0-7-12,13.64,13.64,0,0,0-7.49-5,13.64,13.64,0,0,0-5-7.49,41,41,0,0,0-12-7c-5.4-2.21-8.11-3.31-8.65-13.72a.66.66,0,0,0-.66-.63.67.67,0,0,0-.66.63c-.54,10.41-3.25,11.51-8.64,13.72a41,41,0,0,0-12,7,13.64,13.64,0,0,0-5,7.49,13.64,13.64,0,0,0-7.49,5,41,41,0,0,0-7,12c-2.21,5.39-3.31,8.1-13.72,8.64a.67.67,0,0,0-.63.66.66.66,0,0,0,.63.66c10.41.54,11.51,3.25,13.72,8.65a41,41,0,0,0,7,12,13.64,13.64,0,0,0,7.49,5,13.64,13.64,0,0,0,5,7.49,41,41,0,0,0,12,7c5.38,2.21,8.09,3.31,8.63,13.68h1.34c.54-10.37,3.25-11.47,8.64-13.68a41,41,0,0,0,12-7,13.64,13.64,0,0,0,5-7.49,13.64,13.64,0,0,0,7.49-5,41,41,0,0,0,7-12c2.21-5.39,3.31-8.1,13.68-8.64v-1.34C207.56,162.24,206.46,159.53,204.25,154.15Zm-16.07-11.8c-2.05,6.43-9.88,11.52-16,12.39.88-6.14,6-14,12.39-16a9.69,9.69,0,0,1,3-.47,9.46,9.46,0,0,1,1.07.06A9.54,9.54,0,0,1,188.18,142.35Zm-49.87-4a9.54,9.54,0,0,1,4,.41c6.43,2.05,11.52,9.88,12.39,16-6.14-.87-14-6-16-12.38A9.6,9.6,0,0,1,138.31,138.31Zm.41,46.24c2.05-6.43,9.88-11.51,16-12.39-.87,6.14-6,14-12.39,16a9.54,9.54,0,0,1-4,.41A9.55,9.55,0,0,1,138.72,184.55Zm49.87,4a9.54,9.54,0,0,1-4-.41c-6.42-2.05-11.51-9.88-12.39-16,6.14.88,14,6,16,12.39A9.55,9.55,0,0,1,188.59,188.59ZM203,172.25a39.6,39.6,0,0,1-6.8,11.68,12.86,12.86,0,0,1-6.26,4.39,10.82,10.82,0,0,0-.52-4.18c-2.29-7.2-11.31-12.84-18-13.4a.66.66,0,0,0-.72.72c.56,6.66,6.2,15.69,13.4,18a11.06,11.06,0,0,0,4.18.52,12.86,12.86,0,0,1-4.39,6.26,39.6,39.6,0,0,1-11.68,6.8c-4.44,1.82-7.47,3.06-8.8,9.29-1.32-6.23-4.36-7.47-8.8-9.29a39.6,39.6,0,0,1-11.68-6.8,12.86,12.86,0,0,1-4.39-6.26,11,11,0,0,0,4.18-.52c7.2-2.29,12.85-11.32,13.4-18a.66.66,0,0,0-.72-.72c-6.66.56-15.69,6.2-18,13.4a11,11,0,0,0-.52,4.18,12.86,12.86,0,0,1-6.26-4.39,39.6,39.6,0,0,1-6.8-11.68c-1.82-4.44-3.06-7.47-9.29-8.8,6.23-1.32,7.47-4.36,9.29-8.8a39.6,39.6,0,0,1,6.8-11.68,12.86,12.86,0,0,1,6.26-4.39,11,11,0,0,0,.52,4.18c2.29,7.2,11.32,12.85,18,13.4a.66.66,0,0,0,.72-.72c-.55-6.66-6.2-15.69-13.4-18a11,11,0,0,0-4.18-.52,12.86,12.86,0,0,1,4.39-6.26,39.6,39.6,0,0,1,11.68-6.8c4.44-1.82,7.48-3.06,8.8-9.29,1.33,6.23,4.36,7.47,8.8,9.29a39.6,39.6,0,0,1,11.68,6.8,12.86,12.86,0,0,1,4.39,6.26,11.06,11.06,0,0,0-4.18.52c-7.2,2.29-12.84,11.32-13.4,18a.66.66,0,0,0,.72.72c6.66-.55,15.69-6.2,18-13.4a10.82,10.82,0,0,0,.52-4.18,12.86,12.86,0,0,1,6.26,4.39,39.6,39.6,0,0,1,6.8,11.68c1.82,4.44,3.06,7.48,9.29,8.8C206.08,164.78,204.84,167.81,203,172.25Z"/><path class="cls-2" d="M217.9,162.79a.67.67,0,0,0-.63.66.66.66,0,0,0,.63.66h0v-1.34Z"/></g><g class="cls-1"><path class="cls-2" d="M54.52,217.27C44.12,216.73,43,214,40.8,208.63a40.89,40.89,0,0,0-7-12,13.66,13.66,0,0,0-7.49-5,13.65,13.65,0,0,0-5-7.48,40.79,40.79,0,0,0-12-7c-5.4-2.21-8.11-3.32-8.65-13.72a.65.65,0,0,0-.66-.63v6.29c1.32,6.23,4.36,7.47,8.8,9.29a39.75,39.75,0,0,1,11.68,6.79,12.91,12.91,0,0,1,4.39,6.26,11.21,11.21,0,0,0-4.18.52c-7.2,2.29-12.85,11.32-13.4,18a.64.64,0,0,0,.19.52.65.65,0,0,0,.53.19c6.66-.55,15.69-6.19,18-13.4a11,11,0,0,0,.52-4.17,12.91,12.91,0,0,1,6.26,4.38,39.72,39.72,0,0,1,6.8,11.68c1.82,4.45,3.06,7.48,9.29,8.8h6.29A.67.67,0,0,0,54.52,217.27ZM24.73,196.84c-2.05,6.42-9.88,11.51-16,12.39.87-6.15,6-14,12.39-16a9.7,9.7,0,0,1,3-.48,9.46,9.46,0,0,1,1.07.06A9.58,9.58,0,0,1,24.73,196.84Z"/><path class="cls-2" d="M163.48,217.27c-10.4-.54-11.51-3.25-13.72-8.64a40.66,40.66,0,0,0-7-12,13.64,13.64,0,0,0-7.48-5,13.62,13.62,0,0,0-5-7.48,40.66,40.66,0,0,0-12-7c-5.39-2.21-8.1-3.32-8.64-13.72a.67.67,0,0,0-1.33,0c-.53,10.4-3.24,11.51-8.64,13.72a40.79,40.79,0,0,0-12,7,13.73,13.73,0,0,0-5,7.48,13.68,13.68,0,0,0-7.48,5,40.66,40.66,0,0,0-7,12c-2.21,5.39-3.32,8.1-13.72,8.64a.67.67,0,0,0-.63.66h6.29c6.23-1.32,7.47-4.35,9.29-8.8a39.72,39.72,0,0,1,6.8-11.68,12.91,12.91,0,0,1,6.26-4.38,11,11,0,0,0,.51,4.17c2.3,7.21,11.32,12.85,18,13.4a.62.62,0,0,0,.53-.19.72.72,0,0,0,.19-.52c-.56-6.67-6.2-15.7-13.41-18a11.19,11.19,0,0,0-4.17-.52,12.91,12.91,0,0,1,4.39-6.26,39.63,39.63,0,0,1,11.68-6.79c4.44-1.82,7.47-3.06,8.8-9.29,1.32,6.23,4.35,7.47,8.8,9.29a39.88,39.88,0,0,1,11.68,6.79,12.88,12.88,0,0,1,4.38,6.26,11.19,11.19,0,0,0-4.17.52c-7.21,2.29-12.85,11.32-13.4,18a.64.64,0,0,0,.19.52.61.61,0,0,0,.52.19c6.67-.55,15.7-6.19,18-13.4a11.19,11.19,0,0,0,.52-4.17,13,13,0,0,1,6.26,4.38,39.88,39.88,0,0,1,6.79,11.68c1.82,4.45,3.07,7.48,9.3,8.8h6.28A.66.66,0,0,0,163.48,217.27ZM87.87,193.21c6.42,2,11.51,9.87,12.39,16-6.15-.88-14-6-16-12.39a9.42,9.42,0,0,1-.41-4.05A9.56,9.56,0,0,1,87.87,193.21Zm45.82,3.63c-2,6.42-9.87,11.51-16,12.39.88-6.15,6-14,12.39-16a9.51,9.51,0,0,1,4.05-.42A9.59,9.59,0,0,1,133.69,196.84Z"/><path class="cls-2" d="M178.37,209.13a39.88,39.88,0,0,1,6.79-11.68,13,13,0,0,1,6.26-4.38,11.19,11.19,0,0,0,.52,4.17c2.29,7.21,11.32,12.85,18,13.4a.61.61,0,0,0,.52-.19.64.64,0,0,0,.19-.52c-.55-6.67-6.19-15.7-13.4-18a11.19,11.19,0,0,0-4.17-.52,13,13,0,0,1,4.38-6.26,39.88,39.88,0,0,1,11.68-6.79c4.45-1.82,7.48-3.07,8.8-9.29v-6.29a.66.66,0,0,0-.66.63c-.54,10.4-3.25,11.51-8.64,13.72a40.66,40.66,0,0,0-12,7,13.68,13.68,0,0,0-5,7.48,13.64,13.64,0,0,0-7.48,5,40.66,40.66,0,0,0-7,12c-2.21,5.39-3.32,8.1-13.72,8.64a.66.66,0,0,0-.63.66h6.29C175.3,216.61,176.55,213.58,178.37,209.13Zm14.42-16.34a9.59,9.59,0,0,1,4.05.42c6.42,2,11.51,9.87,12.39,16-6.15-.88-14-6-16-12.39A9.59,9.59,0,0,1,192.79,192.79Z"/></g><g class="cls-1"><path class="cls-2" d="M54.48,217.27a.67.67,0,0,0-.66.63v0h1.33v0A.67.67,0,0,0,54.48,217.27Z"/><path class="cls-2" d="M164.11,217.9a.66.66,0,0,0-.66-.63.67.67,0,0,0-.66.63v0h1.34Z"/></g><g class="cls-1"><path class="cls-2" d="M54.48,218.6a.67.67,0,0,0,.67-.63v0H53.82v0A.67.67,0,0,0,54.48,218.6Z"/><path class="cls-2" d="M162.79,218a.67.67,0,0,0,.66.63.66.66,0,0,0,.66-.63v0h-1.34Z"/></g></g></g></svg>